<mxfile host="65bd71144e">
    <diagram id="t8QoFsj8MZgXzhcuyan1" name="Page-1">
        <mxGraphModel dx="1072" dy="1270" grid="1" gridSize="10" guides="1" tooltips="1" connect="1" arrows="1" fold="1" page="1" pageScale="1" pageWidth="2339" pageHeight="3300" math="0" shadow="0">
            <root>
                <mxCell id="0"/>
                <mxCell id="1" parent="0"/>
                <mxCell id="5" value="HO" style="rounded=1;html=1;fontFamily=Alegreya;fontSource=https%3A%2F%2Ffonts.googleapis.com%2Fcss%3Ffamily%3DAlegreya;whiteSpace=wrap;" parent="1" vertex="1">
                    <mxGeometry x="500" y="140" width="40" height="30" as="geometry"/>
                </mxCell>
                <mxCell id="7" value="A" style="rounded=1;html=1;fontFamily=Alegreya;fontSource=https%3A%2F%2Ffonts.googleapis.com%2Fcss%3Ffamily%3DAlegreya;whiteSpace=wrap;" parent="1" vertex="1">
                    <mxGeometry x="440" y="350" width="40" height="30" as="geometry"/>
                </mxCell>
                <mxCell id="8" value="M" style="rounded=1;html=1;fontFamily=Alegreya;fontSource=https%3A%2F%2Ffonts.googleapis.com%2Fcss%3Ffamily%3DAlegreya;whiteSpace=wrap;" parent="1" vertex="1">
                    <mxGeometry x="510" y="370" width="40" height="30" as="geometry"/>
                </mxCell>
                <mxCell id="31" value="WÃœ" style="rounded=1;html=1;fontFamily=Alegreya;fontSource=https%3A%2F%2Ffonts.googleapis.com%2Fcss%3Ffamily%3DAlegreya;whiteSpace=wrap;" parent="1" vertex="1">
                    <mxGeometry x="370" y="210" width="40" height="30" as="geometry"/>
                </mxCell>
                <mxCell id="32" value="R" style="rounded=1;html=1;fontFamily=Alegreya;fontSource=https%3A%2F%2Ffonts.googleapis.com%2Fcss%3Ffamily%3DAlegreya;whiteSpace=wrap;" parent="1" vertex="1">
                    <mxGeometry x="580" y="290" width="40" height="30" as="geometry"/>
                </mxCell>
                <mxCell id="33" value="UL" style="rounded=1;html=1;fontFamily=Alegreya;fontSource=https%3A%2F%2Ffonts.googleapis.com%2Fcss%3Ffamily%3DAlegreya;whiteSpace=wrap;" parent="1" vertex="1">
                    <mxGeometry x="350" y="330" width="40" height="30" as="geometry"/>
                </mxCell>
                <mxCell id="37" value="192" style="endArrow=none;html=1;fontFamily=Alegreya;fontSource=https%3A%2F%2Ffonts.googleapis.com%2Fcss%3Ffamily%3DAlegreya;" parent="1" source="5" target="31" edge="1">
                    <mxGeometry width="50" height="50" relative="1" as="geometry">
                        <mxPoint x="512.5" y="380" as="sourcePoint"/>
                        <mxPoint x="407.5" y="290" as="targetPoint"/>
                    </mxGeometry>
                </mxCell>
                <mxCell id="38" value="96" style="endArrow=none;html=1;fontFamily=Alegreya;fontSource=https%3A%2F%2Ffonts.googleapis.com%2Fcss%3Ffamily%3DAlegreya;" parent="1" source="32" target="8" edge="1">
                    <mxGeometry width="50" height="50" relative="1" as="geometry">
                        <mxPoint x="522.5" y="390" as="sourcePoint"/>
                        <mxPoint x="417.5" y="300" as="targetPoint"/>
                    </mxGeometry>
                </mxCell>
                <mxCell id="39" value="167" style="endArrow=none;html=1;fontFamily=Alegreya;fontSource=https%3A%2F%2Ffonts.googleapis.com%2Fcss%3Ffamily%3DAlegreya;" parent="1" source="32" target="5" edge="1">
                    <mxGeometry width="50" height="50" relative="1" as="geometry">
                        <mxPoint x="532.5" y="400" as="sourcePoint"/>
                        <mxPoint x="427.5" y="310" as="targetPoint"/>
                    </mxGeometry>
                </mxCell>
                <mxCell id="41" value="59" style="endArrow=none;html=1;fontFamily=Alegreya;fontSource=https%3A%2F%2Ffonts.googleapis.com%2Fcss%3Ffamily%3DAlegreya;" parent="1" source="7" target="33" edge="1">
                    <mxGeometry width="50" height="50" relative="1" as="geometry">
                        <mxPoint x="552.5" y="420" as="sourcePoint"/>
                        <mxPoint x="447.5" y="330" as="targetPoint"/>
                    </mxGeometry>
                </mxCell>
                <mxCell id="42" value="165" style="endArrow=none;html=1;fontFamily=Alegreya;fontSource=https%3A%2F%2Ffonts.googleapis.com%2Fcss%3Ffamily%3DAlegreya;" parent="1" source="33" target="31" edge="1">
                    <mxGeometry width="50" height="50" relative="1" as="geometry">
                        <mxPoint x="562.5" y="430" as="sourcePoint"/>
                        <mxPoint x="457.5" y="340" as="targetPoint"/>
                    </mxGeometry>
                </mxCell>
                <mxCell id="43" value="RO" style="rounded=1;html=1;fontFamily=Alegreya;fontSource=https%3A%2F%2Ffonts.googleapis.com%2Fcss%3Ffamily%3DAlegreya;whiteSpace=wrap;" vertex="1" parent="1">
                    <mxGeometry x="570" y="420" width="40" height="30" as="geometry"/>
                </mxCell>
                <mxCell id="45" value="S" style="rounded=1;html=1;fontFamily=Alegreya;fontSource=https%3A%2F%2Ffonts.googleapis.com%2Fcss%3Ffamily%3DAlegreya;whiteSpace=wrap;" vertex="1" parent="1">
                    <mxGeometry x="260" y="290" width="40" height="30" as="geometry"/>
                </mxCell>
                <mxCell id="46" value="LI" style="rounded=1;html=1;fontFamily=Alegreya;fontSource=https%3A%2F%2Ffonts.googleapis.com%2Fcss%3Ffamily%3DAlegreya;whiteSpace=wrap;" vertex="1" parent="1">
                    <mxGeometry x="320" y="400" width="40" height="30" as="geometry"/>
                </mxCell>
                <mxCell id="47" value="FD" style="rounded=1;html=1;fontFamily=Alegreya;fontSource=https%3A%2F%2Ffonts.googleapis.com%2Fcss%3Ffamily%3DAlegreya;whiteSpace=wrap;" vertex="1" parent="1">
                    <mxGeometry x="330" y="120" width="40" height="30" as="geometry"/>
                </mxCell>
                <mxCell id="48" value="N" style="rounded=1;html=1;fontFamily=Alegreya;fontSource=https%3A%2F%2Ffonts.googleapis.com%2Fcss%3Ffamily%3DAlegreya;whiteSpace=wrap;" vertex="1" parent="1">
                    <mxGeometry x="460" y="260" width="40" height="30" as="geometry"/>
                </mxCell>
                <mxCell id="49" value="96" style="endArrow=none;html=1;fontFamily=Alegreya;fontSource=https%3A%2F%2Ffonts.googleapis.com%2Fcss%3Ffamily%3DAlegreya;" edge="1" parent="1" source="43" target="8">
                    <mxGeometry width="50" height="50" relative="1" as="geometry">
                        <mxPoint x="590" y="440" as="sourcePoint"/>
                        <mxPoint x="520" y="443.8888888888889" as="targetPoint"/>
                    </mxGeometry>
                </mxCell>
                <mxCell id="50" value="143" style="endArrow=none;html=1;fontFamily=Alegreya;fontSource=https%3A%2F%2Ffonts.googleapis.com%2Fcss%3Ffamily%3DAlegreya;" edge="1" parent="1" source="48" target="8">
                    <mxGeometry width="50" height="50" relative="1" as="geometry">
                        <mxPoint x="480" y="350" as="sourcePoint"/>
                        <mxPoint x="410" y="353.8888888888889" as="targetPoint"/>
                    </mxGeometry>
                </mxCell>
                <mxCell id="51" value="116" style="endArrow=none;html=1;fontFamily=Alegreya;fontSource=https%3A%2F%2Ffonts.googleapis.com%2Fcss%3Ffamily%3DAlegreya;" edge="1" parent="1" source="5" target="48">
                    <mxGeometry width="50" height="50" relative="1" as="geometry">
                        <mxPoint x="460" y="280" as="sourcePoint"/>
                        <mxPoint x="390" y="283.8888888888889" as="targetPoint"/>
                    </mxGeometry>
                </mxCell>
                <mxCell id="53" value="104" style="endArrow=none;html=1;fontFamily=Alegreya;fontSource=https%3A%2F%2Ffonts.googleapis.com%2Fcss%3Ffamily%3DAlegreya;" edge="1" parent="1" source="31" target="48">
                    <mxGeometry width="50" height="50" relative="1" as="geometry">
                        <mxPoint x="400" y="290" as="sourcePoint"/>
                        <mxPoint x="330" y="293.8888888888889" as="targetPoint"/>
                    </mxGeometry>
                </mxCell>
                <mxCell id="54" value="64" style="endArrow=none;html=1;fontFamily=Alegreya;fontSource=https%3A%2F%2Ffonts.googleapis.com%2Fcss%3Ffamily%3DAlegreya;" edge="1" parent="1" source="8" target="7">
                    <mxGeometry width="50" height="50" relative="1" as="geometry">
                        <mxPoint x="440" y="410" as="sourcePoint"/>
                        <mxPoint x="370" y="413.8888888888889" as="targetPoint"/>
                    </mxGeometry>
                </mxCell>
                <mxCell id="55" value="103" style="endArrow=none;html=1;fontFamily=Alegreya;fontSource=https%3A%2F%2Ffonts.googleapis.com%2Fcss%3Ffamily%3DAlegreya;" edge="1" parent="1" source="33" target="45">
                    <mxGeometry width="50" height="50" relative="1" as="geometry">
                        <mxPoint x="260" y="300" as="sourcePoint"/>
                        <mxPoint x="190" y="303.8888888888889" as="targetPoint"/>
                    </mxGeometry>
                </mxCell>
                <mxCell id="56" value="111" style="endArrow=none;html=1;entryX=0.5;entryY=0;entryDx=0;entryDy=0;fontFamily=Alegreya;fontSource=https%3A%2F%2Ffonts.googleapis.com%2Fcss%3Ffamily%3DAlegreya;" edge="1" parent="1" source="33" target="46">
                    <mxGeometry x="-0.0116" width="50" height="50" relative="1" as="geometry">
                        <mxPoint x="260" y="360" as="sourcePoint"/>
                        <mxPoint x="190" y="363.8888888888889" as="targetPoint"/>
                        <mxPoint as="offset"/>
                    </mxGeometry>
                </mxCell>
                <mxCell id="57" value="148" style="endArrow=none;html=1;fontFamily=Alegreya;fontSource=https%3A%2F%2Ffonts.googleapis.com%2Fcss%3Ffamily%3DAlegreya;" edge="1" parent="1" source="47" target="31">
                    <mxGeometry width="50" height="50" relative="1" as="geometry">
                        <mxPoint x="210" y="200" as="sourcePoint"/>
                        <mxPoint x="140" y="203.8888888888889" as="targetPoint"/>
                    </mxGeometry>
                </mxCell>
                <mxCell id="58" value="80" style="endArrow=none;html=1;fontFamily=Alegreya;fontSource=https%3A%2F%2Ffonts.googleapis.com%2Fcss%3Ffamily%3DAlegreya;" edge="1" parent="1" source="32" target="48">
                    <mxGeometry width="50" height="50" relative="1" as="geometry">
                        <mxPoint x="530" y="300" as="sourcePoint"/>
                        <mxPoint x="460" y="303.8888888888889" as="targetPoint"/>
                    </mxGeometry>
                </mxCell>
                <mxCell id="59" value="Tiefensuche von NÃ¼rnberg (N) aus" style="text;html=1;strokeColor=none;fillColor=none;align=center;verticalAlign=middle;whiteSpace=wrap;rounded=0;fontFamily=Alegreya;fontSource=https%3A%2F%2Ffonts.googleapis.com%2Fcss%3Ffamily%3DAlegreya;fontStyle=1;fontSize=14;" vertex="1" parent="1">
                    <mxGeometry x="100" y="60" width="200" height="30" as="geometry"/>
                </mxCell>
                <mxCell id="61" value="Reihenfolge der besuchten Orte:" style="text;html=1;strokeColor=none;fillColor=none;align=left;verticalAlign=middle;whiteSpace=wrap;rounded=0;fontFamily=Alegreya;fontSource=https%3A%2F%2Ffonts.googleapis.com%2Fcss%3Ffamily%3DAlegreya;fontSize=14;labelBorderColor=none;" vertex="1" parent="1">
                    <mxGeometry x="80" y="480" width="650" height="30" as="geometry"/>
                </mxCell>
                <mxCell id="62" value="HO" style="rounded=1;html=1;fontFamily=Alegreya;fontSource=https%3A%2F%2Ffonts.googleapis.com%2Fcss%3Ffamily%3DAlegreya;whiteSpace=wrap;" vertex="1" parent="1">
                    <mxGeometry x="485" y="640" width="40" height="30" as="geometry"/>
                </mxCell>
                <mxCell id="63" value="A" style="rounded=1;html=1;fontFamily=Alegreya;fontSource=https%3A%2F%2Ffonts.googleapis.com%2Fcss%3Ffamily%3DAlegreya;whiteSpace=wrap;" vertex="1" parent="1">
                    <mxGeometry x="425" y="850" width="40" height="30" as="geometry"/>
                </mxCell>
                <mxCell id="64" value="M" style="rounded=1;html=1;fontFamily=Alegreya;fontSource=https%3A%2F%2Ffonts.googleapis.com%2Fcss%3Ffamily%3DAlegreya;whiteSpace=wrap;" vertex="1" parent="1">
                    <mxGeometry x="495" y="870" width="40" height="30" as="geometry"/>
                </mxCell>
                <mxCell id="65" value="WÃœ" style="rounded=1;html=1;fontFamily=Alegreya;fontSource=https%3A%2F%2Ffonts.googleapis.com%2Fcss%3Ffamily%3DAlegreya;whiteSpace=wrap;" vertex="1" parent="1">
                    <mxGeometry x="355" y="710" width="40" height="30" as="geometry"/>
                </mxCell>
                <mxCell id="66" value="R" style="rounded=1;html=1;fontFamily=Alegreya;fontSource=https%3A%2F%2Ffonts.googleapis.com%2Fcss%3Ffamily%3DAlegreya;whiteSpace=wrap;" vertex="1" parent="1">
                    <mxGeometry x="565" y="790" width="40" height="30" as="geometry"/>
                </mxCell>
                <mxCell id="67" value="UL" style="rounded=1;html=1;fontFamily=Alegreya;fontSource=https%3A%2F%2Ffonts.googleapis.com%2Fcss%3Ffamily%3DAlegreya;whiteSpace=wrap;" vertex="1" parent="1">
                    <mxGeometry x="335" y="830" width="40" height="30" as="geometry"/>
                </mxCell>
                <mxCell id="68" value="192" style="endArrow=none;html=1;fontFamily=Alegreya;fontSource=https%3A%2F%2Ffonts.googleapis.com%2Fcss%3Ffamily%3DAlegreya;" edge="1" source="62" target="65" parent="1">
                    <mxGeometry width="50" height="50" relative="1" as="geometry">
                        <mxPoint x="497.5" y="880" as="sourcePoint"/>
                        <mxPoint x="392.5" y="790" as="targetPoint"/>
                    </mxGeometry>
                </mxCell>
                <mxCell id="69" value="96" style="endArrow=none;html=1;fontFamily=Alegreya;fontSource=https%3A%2F%2Ffonts.googleapis.com%2Fcss%3Ffamily%3DAlegreya;" edge="1" source="66" target="64" parent="1">
                    <mxGeometry width="50" height="50" relative="1" as="geometry">
                        <mxPoint x="507.5" y="890" as="sourcePoint"/>
                        <mxPoint x="402.5" y="800" as="targetPoint"/>
                    </mxGeometry>
                </mxCell>
                <mxCell id="70" value="167" style="endArrow=none;html=1;fontFamily=Alegreya;fontSource=https%3A%2F%2Ffonts.googleapis.com%2Fcss%3Ffamily%3DAlegreya;" edge="1" source="66" target="62" parent="1">
                    <mxGeometry width="50" height="50" relative="1" as="geometry">
                        <mxPoint x="517.5" y="900" as="sourcePoint"/>
                        <mxPoint x="412.5" y="810" as="targetPoint"/>
                    </mxGeometry>
                </mxCell>
                <mxCell id="71" value="59" style="endArrow=none;html=1;fontFamily=Alegreya;fontSource=https%3A%2F%2Ffonts.googleapis.com%2Fcss%3Ffamily%3DAlegreya;" edge="1" source="63" target="67" parent="1">
                    <mxGeometry width="50" height="50" relative="1" as="geometry">
                        <mxPoint x="537.5" y="920" as="sourcePoint"/>
                        <mxPoint x="432.5" y="830" as="targetPoint"/>
                    </mxGeometry>
                </mxCell>
                <mxCell id="72" value="165" style="endArrow=none;html=1;fontFamily=Alegreya;fontSource=https%3A%2F%2Ffonts.googleapis.com%2Fcss%3Ffamily%3DAlegreya;" edge="1" source="67" target="65" parent="1">
                    <mxGeometry width="50" height="50" relative="1" as="geometry">
                        <mxPoint x="547.5" y="930" as="sourcePoint"/>
                        <mxPoint x="442.5" y="840" as="targetPoint"/>
                    </mxGeometry>
                </mxCell>
                <mxCell id="73" value="RO" style="rounded=1;html=1;fontFamily=Alegreya;fontSource=https%3A%2F%2Ffonts.googleapis.com%2Fcss%3Ffamily%3DAlegreya;whiteSpace=wrap;" vertex="1" parent="1">
                    <mxGeometry x="555" y="920" width="40" height="30" as="geometry"/>
                </mxCell>
                <mxCell id="74" value="S" style="rounded=1;html=1;fontFamily=Alegreya;fontSource=https%3A%2F%2Ffonts.googleapis.com%2Fcss%3Ffamily%3DAlegreya;whiteSpace=wrap;" vertex="1" parent="1">
                    <mxGeometry x="245" y="790" width="40" height="30" as="geometry"/>
                </mxCell>
                <mxCell id="75" value="LI" style="rounded=1;html=1;fontFamily=Alegreya;fontSource=https%3A%2F%2Ffonts.googleapis.com%2Fcss%3Ffamily%3DAlegreya;whiteSpace=wrap;" vertex="1" parent="1">
                    <mxGeometry x="305" y="900" width="40" height="30" as="geometry"/>
                </mxCell>
                <mxCell id="76" value="FD" style="rounded=1;html=1;fontFamily=Alegreya;fontSource=https%3A%2F%2Ffonts.googleapis.com%2Fcss%3Ffamily%3DAlegreya;whiteSpace=wrap;" vertex="1" parent="1">
                    <mxGeometry x="315" y="620" width="40" height="30" as="geometry"/>
                </mxCell>
                <mxCell id="77" value="N" style="rounded=1;html=1;fontFamily=Alegreya;fontSource=https%3A%2F%2Ffonts.googleapis.com%2Fcss%3Ffamily%3DAlegreya;whiteSpace=wrap;" vertex="1" parent="1">
                    <mxGeometry x="445" y="760" width="40" height="30" as="geometry"/>
                </mxCell>
                <mxCell id="78" value="96" style="endArrow=none;html=1;fontFamily=Alegreya;fontSource=https%3A%2F%2Ffonts.googleapis.com%2Fcss%3Ffamily%3DAlegreya;" edge="1" source="73" target="64" parent="1">
                    <mxGeometry width="50" height="50" relative="1" as="geometry">
                        <mxPoint x="575" y="940" as="sourcePoint"/>
                        <mxPoint x="505" y="943.8888888888889" as="targetPoint"/>
                    </mxGeometry>
                </mxCell>
                <mxCell id="79" value="143" style="endArrow=none;html=1;fontFamily=Alegreya;fontSource=https%3A%2F%2Ffonts.googleapis.com%2Fcss%3Ffamily%3DAlegreya;" edge="1" source="77" target="64" parent="1">
                    <mxGeometry width="50" height="50" relative="1" as="geometry">
                        <mxPoint x="465" y="850" as="sourcePoint"/>
                        <mxPoint x="395" y="853.8888888888889" as="targetPoint"/>
                    </mxGeometry>
                </mxCell>
                <mxCell id="80" value="116" style="endArrow=none;html=1;fontFamily=Alegreya;fontSource=https%3A%2F%2Ffonts.googleapis.com%2Fcss%3Ffamily%3DAlegreya;" edge="1" source="62" target="77" parent="1">
                    <mxGeometry width="50" height="50" relative="1" as="geometry">
                        <mxPoint x="445" y="780" as="sourcePoint"/>
                        <mxPoint x="375" y="783.8888888888889" as="targetPoint"/>
                    </mxGeometry>
                </mxCell>
                <mxCell id="81" value="104" style="endArrow=none;html=1;fontFamily=Alegreya;fontSource=https%3A%2F%2Ffonts.googleapis.com%2Fcss%3Ffamily%3DAlegreya;" edge="1" source="65" target="77" parent="1">
                    <mxGeometry width="50" height="50" relative="1" as="geometry">
                        <mxPoint x="385" y="790" as="sourcePoint"/>
                        <mxPoint x="315" y="793.8888888888889" as="targetPoint"/>
                    </mxGeometry>
                </mxCell>
                <mxCell id="82" value="64" style="endArrow=none;html=1;fontFamily=Alegreya;fontSource=https%3A%2F%2Ffonts.googleapis.com%2Fcss%3Ffamily%3DAlegreya;" edge="1" source="64" target="63" parent="1">
                    <mxGeometry width="50" height="50" relative="1" as="geometry">
                        <mxPoint x="425" y="910" as="sourcePoint"/>
                        <mxPoint x="355" y="913.8888888888889" as="targetPoint"/>
                    </mxGeometry>
                </mxCell>
                <mxCell id="83" value="103" style="endArrow=none;html=1;fontFamily=Alegreya;fontSource=https%3A%2F%2Ffonts.googleapis.com%2Fcss%3Ffamily%3DAlegreya;" edge="1" source="67" target="74" parent="1">
                    <mxGeometry width="50" height="50" relative="1" as="geometry">
                        <mxPoint x="245" y="800" as="sourcePoint"/>
                        <mxPoint x="175" y="803.8888888888889" as="targetPoint"/>
                    </mxGeometry>
                </mxCell>
                <mxCell id="84" value="111" style="endArrow=none;html=1;entryX=0.5;entryY=0;entryDx=0;entryDy=0;fontFamily=Alegreya;fontSource=https%3A%2F%2Ffonts.googleapis.com%2Fcss%3Ffamily%3DAlegreya;" edge="1" source="67" target="75" parent="1">
                    <mxGeometry x="-0.0116" width="50" height="50" relative="1" as="geometry">
                        <mxPoint x="245" y="860" as="sourcePoint"/>
                        <mxPoint x="175" y="863.8888888888889" as="targetPoint"/>
                        <mxPoint as="offset"/>
                    </mxGeometry>
                </mxCell>
                <mxCell id="85" value="148" style="endArrow=none;html=1;fontFamily=Alegreya;fontSource=https%3A%2F%2Ffonts.googleapis.com%2Fcss%3Ffamily%3DAlegreya;" edge="1" source="76" target="65" parent="1">
                    <mxGeometry width="50" height="50" relative="1" as="geometry">
                        <mxPoint x="195" y="700" as="sourcePoint"/>
                        <mxPoint x="125" y="703.8888888888889" as="targetPoint"/>
                    </mxGeometry>
                </mxCell>
                <mxCell id="86" value="80" style="endArrow=none;html=1;fontFamily=Alegreya;fontSource=https%3A%2F%2Ffonts.googleapis.com%2Fcss%3Ffamily%3DAlegreya;" edge="1" source="66" target="77" parent="1">
                    <mxGeometry width="50" height="50" relative="1" as="geometry">
                        <mxPoint x="515" y="800" as="sourcePoint"/>
                        <mxPoint x="445" y="803.8888888888889" as="targetPoint"/>
                    </mxGeometry>
                </mxCell>
                <mxCell id="87" value="Tiefensuche von MÃ¼nchen (M) aus" style="text;html=1;strokeColor=none;fillColor=none;align=center;verticalAlign=middle;whiteSpace=wrap;rounded=0;fontFamily=Alegreya;fontSource=https%3A%2F%2Ffonts.googleapis.com%2Fcss%3Ffamily%3DAlegreya;fontStyle=1;fontSize=14;" vertex="1" parent="1">
                    <mxGeometry x="85" y="560" width="200" height="30" as="geometry"/>
                </mxCell>
                <mxCell id="88" value="Reihenfolge der besuchten Orte:" style="text;html=1;strokeColor=none;fillColor=none;align=left;verticalAlign=middle;whiteSpace=wrap;rounded=0;fontFamily=Alegreya;fontSource=https%3A%2F%2Ffonts.googleapis.com%2Fcss%3Ffamily%3DAlegreya;fontSize=14;labelBorderColor=none;" vertex="1" parent="1">
                    <mxGeometry x="65" y="980" width="650" height="30" as="geometry"/>
                </mxCell>
                <mxCell id="89" value="HO" style="rounded=1;html=1;fontFamily=Alegreya;fontSource=https%3A%2F%2Ffonts.googleapis.com%2Fcss%3Ffamily%3DAlegreya;whiteSpace=wrap;" vertex="1" parent="1">
                    <mxGeometry x="485" y="1160" width="40" height="30" as="geometry"/>
                </mxCell>
                <mxCell id="90" value="A" style="rounded=1;html=1;fontFamily=Alegreya;fontSource=https%3A%2F%2Ffonts.googleapis.com%2Fcss%3Ffamily%3DAlegreya;whiteSpace=wrap;" vertex="1" parent="1">
                    <mxGeometry x="425" y="1370" width="40" height="30" as="geometry"/>
                </mxCell>
                <mxCell id="91" value="M" style="rounded=1;html=1;fontFamily=Alegreya;fontSource=https%3A%2F%2Ffonts.googleapis.com%2Fcss%3Ffamily%3DAlegreya;whiteSpace=wrap;" vertex="1" parent="1">
                    <mxGeometry x="495" y="1390" width="40" height="30" as="geometry"/>
                </mxCell>
                <mxCell id="92" value="WÃœ" style="rounded=1;html=1;fontFamily=Alegreya;fontSource=https%3A%2F%2Ffonts.googleapis.com%2Fcss%3Ffamily%3DAlegreya;whiteSpace=wrap;" vertex="1" parent="1">
                    <mxGeometry x="355" y="1230" width="40" height="30" as="geometry"/>
                </mxCell>
                <mxCell id="93" value="R" style="rounded=1;html=1;fontFamily=Alegreya;fontSource=https%3A%2F%2Ffonts.googleapis.com%2Fcss%3Ffamily%3DAlegreya;whiteSpace=wrap;" vertex="1" parent="1">
                    <mxGeometry x="565" y="1310" width="40" height="30" as="geometry"/>
                </mxCell>
                <mxCell id="94" value="UL" style="rounded=1;html=1;fontFamily=Alegreya;fontSource=https%3A%2F%2Ffonts.googleapis.com%2Fcss%3Ffamily%3DAlegreya;whiteSpace=wrap;" vertex="1" parent="1">
                    <mxGeometry x="335" y="1350" width="40" height="30" as="geometry"/>
                </mxCell>
                <mxCell id="95" value="192" style="endArrow=none;html=1;fontFamily=Alegreya;fontSource=https%3A%2F%2Ffonts.googleapis.com%2Fcss%3Ffamily%3DAlegreya;" edge="1" source="89" target="92" parent="1">
                    <mxGeometry width="50" height="50" relative="1" as="geometry">
                        <mxPoint x="497.5" y="1400" as="sourcePoint"/>
                        <mxPoint x="392.5" y="1310" as="targetPoint"/>
                    </mxGeometry>
                </mxCell>
                <mxCell id="96" value="96" style="endArrow=none;html=1;fontFamily=Alegreya;fontSource=https%3A%2F%2Ffonts.googleapis.com%2Fcss%3Ffamily%3DAlegreya;" edge="1" source="93" target="91" parent="1">
                    <mxGeometry width="50" height="50" relative="1" as="geometry">
                        <mxPoint x="507.5" y="1410" as="sourcePoint"/>
                        <mxPoint x="402.5" y="1320" as="targetPoint"/>
                    </mxGeometry>
                </mxCell>
                <mxCell id="97" value="167" style="endArrow=none;html=1;fontFamily=Alegreya;fontSource=https%3A%2F%2Ffonts.googleapis.com%2Fcss%3Ffamily%3DAlegreya;" edge="1" source="93" target="89" parent="1">
                    <mxGeometry width="50" height="50" relative="1" as="geometry">
                        <mxPoint x="517.5" y="1420" as="sourcePoint"/>
                        <mxPoint x="412.5" y="1330" as="targetPoint"/>
                    </mxGeometry>
                </mxCell>
                <mxCell id="98" value="59" style="endArrow=none;html=1;fontFamily=Alegreya;fontSource=https%3A%2F%2Ffonts.googleapis.com%2Fcss%3Ffamily%3DAlegreya;" edge="1" source="90" target="94" parent="1">
                    <mxGeometry width="50" height="50" relative="1" as="geometry">
                        <mxPoint x="537.5" y="1440" as="sourcePoint"/>
                        <mxPoint x="432.5" y="1350" as="targetPoint"/>
                    </mxGeometry>
                </mxCell>
                <mxCell id="99" value="165" style="endArrow=none;html=1;fontFamily=Alegreya;fontSource=https%3A%2F%2Ffonts.googleapis.com%2Fcss%3Ffamily%3DAlegreya;" edge="1" source="94" target="92" parent="1">
                    <mxGeometry width="50" height="50" relative="1" as="geometry">
                        <mxPoint x="547.5" y="1450" as="sourcePoint"/>
                        <mxPoint x="442.5" y="1360" as="targetPoint"/>
                    </mxGeometry>
                </mxCell>
                <mxCell id="100" value="RO" style="rounded=1;html=1;fontFamily=Alegreya;fontSource=https%3A%2F%2Ffonts.googleapis.com%2Fcss%3Ffamily%3DAlegreya;whiteSpace=wrap;" vertex="1" parent="1">
                    <mxGeometry x="555" y="1440" width="40" height="30" as="geometry"/>
                </mxCell>
                <mxCell id="101" value="S" style="rounded=1;html=1;fontFamily=Alegreya;fontSource=https%3A%2F%2Ffonts.googleapis.com%2Fcss%3Ffamily%3DAlegreya;whiteSpace=wrap;" vertex="1" parent="1">
                    <mxGeometry x="245" y="1310" width="40" height="30" as="geometry"/>
                </mxCell>
                <mxCell id="102" value="LI" style="rounded=1;html=1;fontFamily=Alegreya;fontSource=https%3A%2F%2Ffonts.googleapis.com%2Fcss%3Ffamily%3DAlegreya;whiteSpace=wrap;" vertex="1" parent="1">
                    <mxGeometry x="305" y="1420" width="40" height="30" as="geometry"/>
                </mxCell>
                <mxCell id="103" value="FD" style="rounded=1;html=1;fontFamily=Alegreya;fontSource=https%3A%2F%2Ffonts.googleapis.com%2Fcss%3Ffamily%3DAlegreya;whiteSpace=wrap;" vertex="1" parent="1">
                    <mxGeometry x="315" y="1140" width="40" height="30" as="geometry"/>
                </mxCell>
                <mxCell id="104" value="N" style="rounded=1;html=1;fontFamily=Alegreya;fontSource=https%3A%2F%2Ffonts.googleapis.com%2Fcss%3Ffamily%3DAlegreya;whiteSpace=wrap;" vertex="1" parent="1">
                    <mxGeometry x="445" y="1280" width="40" height="30" as="geometry"/>
                </mxCell>
                <mxCell id="105" value="96" style="endArrow=none;html=1;fontFamily=Alegreya;fontSource=https%3A%2F%2Ffonts.googleapis.com%2Fcss%3Ffamily%3DAlegreya;" edge="1" source="100" target="91" parent="1">
                    <mxGeometry width="50" height="50" relative="1" as="geometry">
                        <mxPoint x="575" y="1460" as="sourcePoint"/>
                        <mxPoint x="505" y="1463.888888888889" as="targetPoint"/>
                    </mxGeometry>
                </mxCell>
                <mxCell id="106" value="143" style="endArrow=none;html=1;fontFamily=Alegreya;fontSource=https%3A%2F%2Ffonts.googleapis.com%2Fcss%3Ffamily%3DAlegreya;" edge="1" source="104" target="91" parent="1">
                    <mxGeometry width="50" height="50" relative="1" as="geometry">
                        <mxPoint x="465" y="1370" as="sourcePoint"/>
                        <mxPoint x="395" y="1373.888888888889" as="targetPoint"/>
                    </mxGeometry>
                </mxCell>
                <mxCell id="107" value="116" style="endArrow=none;html=1;fontFamily=Alegreya;fontSource=https%3A%2F%2Ffonts.googleapis.com%2Fcss%3Ffamily%3DAlegreya;" edge="1" source="89" target="104" parent="1">
                    <mxGeometry width="50" height="50" relative="1" as="geometry">
                        <mxPoint x="445" y="1300" as="sourcePoint"/>
                        <mxPoint x="375" y="1303.888888888889" as="targetPoint"/>
                    </mxGeometry>
                </mxCell>
                <mxCell id="108" value="104" style="endArrow=none;html=1;fontFamily=Alegreya;fontSource=https%3A%2F%2Ffonts.googleapis.com%2Fcss%3Ffamily%3DAlegreya;" edge="1" source="92" target="104" parent="1">
                    <mxGeometry width="50" height="50" relative="1" as="geometry">
                        <mxPoint x="385" y="1310" as="sourcePoint"/>
                        <mxPoint x="315" y="1313.888888888889" as="targetPoint"/>
                    </mxGeometry>
                </mxCell>
                <mxCell id="109" value="64" style="endArrow=none;html=1;fontFamily=Alegreya;fontSource=https%3A%2F%2Ffonts.googleapis.com%2Fcss%3Ffamily%3DAlegreya;" edge="1" source="91" target="90" parent="1">
                    <mxGeometry width="50" height="50" relative="1" as="geometry">
                        <mxPoint x="425" y="1430" as="sourcePoint"/>
                        <mxPoint x="355" y="1433.888888888889" as="targetPoint"/>
                    </mxGeometry>
                </mxCell>
                <mxCell id="110" value="103" style="endArrow=none;html=1;fontFamily=Alegreya;fontSource=https%3A%2F%2Ffonts.googleapis.com%2Fcss%3Ffamily%3DAlegreya;" edge="1" source="94" target="101" parent="1">
                    <mxGeometry width="50" height="50" relative="1" as="geometry">
                        <mxPoint x="245" y="1320" as="sourcePoint"/>
                        <mxPoint x="175" y="1323.888888888889" as="targetPoint"/>
                    </mxGeometry>
                </mxCell>
                <mxCell id="111" value="111" style="endArrow=none;html=1;entryX=0.5;entryY=0;entryDx=0;entryDy=0;fontFamily=Alegreya;fontSource=https%3A%2F%2Ffonts.googleapis.com%2Fcss%3Ffamily%3DAlegreya;" edge="1" source="94" target="102" parent="1">
                    <mxGeometry x="-0.0116" width="50" height="50" relative="1" as="geometry">
                        <mxPoint x="245" y="1380" as="sourcePoint"/>
                        <mxPoint x="175" y="1383.888888888889" as="targetPoint"/>
                        <mxPoint as="offset"/>
                    </mxGeometry>
                </mxCell>
                <mxCell id="112" value="148" style="endArrow=none;html=1;fontFamily=Alegreya;fontSource=https%3A%2F%2Ffonts.googleapis.com%2Fcss%3Ffamily%3DAlegreya;" edge="1" source="103" target="92" parent="1">
                    <mxGeometry width="50" height="50" relative="1" as="geometry">
                        <mxPoint x="195" y="1220" as="sourcePoint"/>
                        <mxPoint x="125" y="1223.888888888889" as="targetPoint"/>
                    </mxGeometry>
                </mxCell>
                <mxCell id="113" value="80" style="endArrow=none;html=1;fontFamily=Alegreya;fontSource=https%3A%2F%2Ffonts.googleapis.com%2Fcss%3Ffamily%3DAlegreya;" edge="1" source="93" target="104" parent="1">
                    <mxGeometry width="50" height="50" relative="1" as="geometry">
                        <mxPoint x="515" y="1320" as="sourcePoint"/>
                        <mxPoint x="445" y="1323.888888888889" as="targetPoint"/>
                    </mxGeometry>
                </mxCell>
                <mxCell id="114" value="Tiefensuche von WÃ¼rzburg (W) aus" style="text;html=1;strokeColor=none;fillColor=none;align=center;verticalAlign=middle;whiteSpace=wrap;rounded=0;fontFamily=Alegreya;fontSource=https%3A%2F%2Ffonts.googleapis.com%2Fcss%3Ffamily%3DAlegreya;fontStyle=1;fontSize=14;" vertex="1" parent="1">
                    <mxGeometry x="35" y="1080" width="220" height="30" as="geometry"/>
                </mxCell>
                <mxCell id="115" value="Reihenfolge der besuchten Orte:" style="text;html=1;strokeColor=none;fillColor=none;align=left;verticalAlign=middle;whiteSpace=wrap;rounded=0;fontFamily=Alegreya;fontSource=https%3A%2F%2Ffonts.googleapis.com%2Fcss%3Ffamily%3DAlegreya;fontSize=14;labelBorderColor=none;" vertex="1" parent="1">
                    <mxGeometry x="65" y="1500" width="650" height="30" as="geometry"/>
                </mxCell>
            </root>
        </mxGraphModel>
    </diagram>
</mxfile>
